<svg width="60" height="60" viewBox="0 0 60 60" fill="none" xmlns="http://www.w3.org/2000/svg">
<path d="M32.595 51.665C30.34 53.3275 26.6125 52.5075 25.8125 49.2075C25.6527 48.548 25.3394 47.9356 24.8982 47.42C24.457 46.9044 23.9003 46.5004 23.2734 46.2406C22.6465 45.9809 21.9671 45.8729 21.2905 45.9253C20.614 45.9778 19.9594 46.1892 19.38 46.5425C15.5225 48.8925 11.105 44.4775 13.455 40.6175C13.8078 40.0384 14.0189 39.3842 14.0712 38.7081C14.1235 38.032 14.0156 37.3531 13.7562 36.7266C13.4968 36.1 13.0932 35.5436 12.5782 35.1024C12.0632 34.6612 11.4514 34.3477 10.7925 34.1875C6.4025 33.1225 6.4025 26.8775 10.7925 25.8125C11.452 25.6527 12.0644 25.3394 12.58 24.8982C13.0956 24.457 13.4996 23.9003 13.7594 23.2734C14.0191 22.6465 14.1271 21.9671 14.0747 21.2905C14.0222 20.614 13.8108 19.9594 13.4575 19.38C11.1075 15.5225 15.5225 11.105 19.3825 13.455C21.8825 14.975 25.1225 13.63 25.8125 10.7925C26.8775 6.4025 33.1225 6.4025 34.1875 10.7925C34.3473 11.452 34.6606 12.0644 35.1018 12.58C35.543 13.0956 36.0997 13.4996 36.7266 13.7594C37.3535 14.0191 38.0329 14.1271 38.7095 14.0747C39.386 14.0222 40.0406 13.8108 40.62 13.4575C44.4775 11.1075 48.895 15.5225 46.545 19.3825C45.9981 20.2806 45.7984 21.3477 45.9835 22.3828C46.1686 23.4179 46.7258 24.3496 47.55 25.0025" stroke="black" stroke-width="2" stroke-linecap="round" stroke-linejoin="round"/>
<path d="M37.5 30C37.4995 28.3761 36.972 26.7963 35.9968 25.4979C35.0215 24.1995 33.6512 23.2527 32.0917 22.7998C30.5323 22.3469 28.868 22.4124 27.3489 22.9864C25.8299 23.5604 24.5382 24.6119 23.6679 25.9829C22.7977 27.3539 22.3959 28.9703 22.523 30.5892C22.6501 32.2081 23.2992 33.742 24.3727 34.9604C25.4462 36.1788 26.8862 37.0158 28.4762 37.3458C30.0662 37.6757 31.7203 37.4807 33.19 36.79M52.5 37.5H46.25C45.2554 37.5 44.3016 37.8951 43.5984 38.5983C42.8951 39.3016 42.5 40.2554 42.5 41.25C42.5 42.2445 42.8951 43.1984 43.5984 43.9016C44.3016 44.6049 45.2554 45 46.25 45H48.75C49.7446 45 50.6984 45.3951 51.4017 46.0983C52.1049 46.8016 52.5 47.7554 52.5 48.75C52.5 49.7445 52.1049 50.6984 51.4017 51.4016C50.6984 52.1049 49.7446 52.5 48.75 52.5H42.5M47.5 52.5V55M47.5 35V37.5" stroke="black" stroke-width="2" stroke-linecap="round" stroke-linejoin="round"/>
</svg>
